<?xml version="1.0" encoding="utf-8"?>
<!-- Generator: Adobe Illustrator 19.1.0, SVG Export Plug-In . SVG Version: 6.00 Build 0)  -->
<svg version="1.1" id="Layer_1" xmlns="http://www.w3.org/2000/svg" xmlns:xlink="http://www.w3.org/1999/xlink" x="0px" y="0px"
	 viewBox="0 0 72 72" style="enable-background:new 0 0 72 72;" xml:space="preserve">
<style type="text/css">
	.st0{fill:#6D8AC3;}
</style>
<path class="st0" d="M36,66C19.5,66,6,52.5,6,36S19.5,6,36,6s30,13.5,30,30S52.5,66,36,66z M36,0C16.1,0,0,16.1,0,36s16.1,36,36,36
	s36-16.1,36-36S55.9,0,36,0z"/>
<path class="st0" d="M57,33c-1.7,0-3,1.3-3,3c0,9.9-8.1,18-18,18s-18-8.1-18-18c0-1.7-1.3-3-3-3s-3,1.3-3,3c0,13.2,10.8,24,24,24
	s24-10.8,24-24C60,34.3,58.7,33,57,33z"/>
<path class="st0" d="M18,30c1.7,0,3-1.3,3-3s1.3-3,3-3s3,1.3,3,3v10.5c0,5,4,9,9,9s9-4,9-9c0,0,0,0,0,0V27c0-1.7,1.3-3,3-3
	s3,1.3,3,3s1.3,3,3,3s3-1.3,3-3c0-5-4-9-9-9s-9,4-9,9v10.5v0c0,1.7-1.3,3-3,3c-1.7,0-3-1.3-3-3V27c0-5-4-9-9-9s-9,4-9,9
	C15,28.7,16.3,30,18,30z"/>
</svg>
